#!OML:ASF F:\VICON\USERDATA\INSTALL\Justin_Nancy\Justin_Nancy.ASF
:FULLY-SPECIFIED
:DEGREES
208
root 0.0385897 17.6348 3.11066 0.180892 0.709899 -0.111619
lowerback 6.64186 -2.07981 -1.7606
upperback -0.323962 -2.76861 3.64817
thorax -3.79671 -1.30815 5.05418
lowerneck -17.8263 -2.83625 -8.45388
upperneck 21.8928 -2.63857 4.41378
head 10.1044 -1.41344 2.60265
rclavicle -4.28878e-014 6.12257e-014
rhumerus -39.1884 -20.1606 -71.9734
rradius 24.7672
rwrist 13.0702
rhand -12.6442 10.0281
rfingers 7.12502
rthumb 13.4362 -19.5185
lclavicle -4.28878e-014 6.12257e-014
lhumerus -28.9911 9.73757 86.1905
lradius 30.1513
lwrist -7.40741
lhand -18.2843 24.3876
lfingers 7.12502
lthumb 7.99595 414.216
rfemur -16.9941 2.81745 23.4253
rtibia 20.0391
rfoot 0.507108 -2.31503
rtoes -0.17973
lfemur -2.51671 -1.17347 -20.6845
ltibia 52.3655
lfoot 14.0405 -6.31955
ltoes 0.504755
209
root 0.0154839 17.6524 3.25873 0.0757933 0.610604 -0.729129
lowerback 6.8173 -1.97272 -1.21901
upperback -0.270708 -2.57484 3.83494
thorax -3.87434 -1.21959 4.93265
lowerneck -17.81 -2.89633 -8.47117
upperneck 21.7823 -2.70766 4.37954
head 10.0669 -1.44915 2.58211
rclavicle -5.06901e-015 4.77083e-015
rhumerus -38.8846 -19.6924 -72.2468
rradius 24.8757
rwrist 12.8441
rhand -13.1481 9.74248
rfingers 7.12502
rthumb 12.9504 -19.8356
lclavicle -5.06901e-015 4.77083e-015
lhumerus -29.2274 10.064 86.1296
lradius 29.8101
lwrist -8.76697
lhand -21.3048 19.0205
lfingers 7.12502
lthumb 5.08002 408.94
rfemur -16.0258 3.07177 24.2459
rtibia 19.4884
rfoot 0.324588 -2.47049
rtoes -0.0406187
lfemur -3.89081 -0.767346 -19.8025
ltibia 54.6203
lfoot 15.7998 -6.69516
ltoes 0.922566
210
root -0.00393637 17.6761 3.41441 -0.0421869 0.49162 -0.92983
lowerback 6.89981 -1.8798 -1.04564
upperback -0.190236 -2.43588 3.88128
thorax -3.85508 -1.15474 4.87113
lowerneck -17.7396 -2.9578 -8.61094
upperneck 21.5599 -2.78698 4.50952
head 9.98411 -1.47968 2.63794
rclavicle -1.25731e-014 1.59028e-014
rhumerus -38.3345 -19.4575 -72.4501
rradius 24.5508
rwrist 12.9564
rhand -13.5897 9.61533
rfingers 7.12502
rthumb 12.5247 -19.9893
lclavicle -1.25731e-014 1.59028e-014
lhumerus -29.3546 10.1049 86.1426
lradius 29.4587
lwrist -9.60463
lhand -16.0925 25.9364
lfingers 7.12502
lthumb 10.1109 415.673
rfemur -15.0621 3.23884 24.5855
rtibia 18.9924
rfoot 0.0568605 -2.55151
rtoes 0.518939
lfemur -5.22106 -0.449384 -19.4594
ltibia 56.6722
lfoot 16.5617 -6.17889
ltoes 0.804349
211
root -0.017444 17.6901 3.56853 -0.177346 0.484417 -1.09071
lowerback 6.87468 -1.82688 -0.827728
upperback -0.0230032 -2.35287 3.85689
thorax -3.68421 -1.12281 4.70704
lowerneck -17.7852 -3.01217 -8.54148
upperneck 21.3328 -2.86738 4.48685
head 9.91599 -1.50983 2.60391
rclavicle 2.78299e-015 1.35174e-014
rhumerus -37.5417 -19.6567 -72.5276
rradius 23.9312
rwrist 13.3172
rhand -13.647 10.5242
rfingers 7.12502
rthumb 12.4695 -19.0838
lclavicle 2.78299e-015 1.35174e-014
lhumerus -29.3125 10.0845 86.1258
lradius 29.0004
lwrist -9.91599
lhand -14.7837 27.6524
lfingers 7.12502
lthumb 11.3734 417.324
rfemur -14.1502 3.08206 24.8746
rtibia 18.7018
rfoot -0.404713 -2.54145
rtoes 1.25304
lfemur -6.39153 -0.308035 -19.2294
ltibia 58.5389
lfoot 16.2245 -5.10603
ltoes 0.754851
212
root -0.031444 17.717 3.72316 -0.37983 0.4985 -1.24541
lowerback 6.88333 -1.76928 -0.606284
upperback 0.162941 -2.26415 3.82392
thorax -3.51337 -1.08761 4.53281
lowerneck -17.9868 -3.05221 -8.51552
upperneck 21.4435 -2.92652 4.53555
head 9.99756 -1.52836 2.60911
rclavicle 1.07344e-014 7.95139e-016
rhumerus -36.9165 -19.7718 -72.627
rradius 23.7128
rwrist 13.6332
rhand -13.5016 11.1998
rfingers 7.12502
rthumb 12.6097 -18.3996
lclavicle 1.07344e-014 7.95139e-016
lhumerus -29.3432 10.1522 86.0336
lradius 28.4967
lwrist -10.3029
lhand -14.819 26.9277
lfingers 7.12502
lthumb 11.3394 416.601
rfemur -12.993 2.97624 25.1251
rtibia 18.2694
rfoot -0.918812 -2.54367
rtoes 2.58082
lfemur -7.48657 -0.12615 -18.9974
ltibia 60.2692
lfoot 15.2551 -3.72408
ltoes 0.144156
213
root -0.0544331 17.7539 3.87236 -0.529207 0.290805 -1.55552
lowerback 6.98664 -1.64551 -0.397725
upperback 0.218647 -2.08002 3.88218
thorax -3.53385 -0.99911 4.4612
lowerneck -17.9098 -3.01988 -8.6725
upperneck 21.5049 -2.935 4.89873
head 10.0129 -1.50456 2.76495
rclavicle 2.43511e-014 -8.34896e-014
rhumerus -36.6065 -19.5202 -72.769
rradius 23.7552
rwrist 13.8479
rhand -13.3355 11.7485
rfingers 7.12502
rthumb 12.7697 -17.8409
lclavicle 2.43511e-014 -8.34896e-014
lhumerus -29.5936 10.3545 85.8984
lradius 27.8626
lwrist -10.8781
lhand -15.3749 25.8752
lfingers 7.12502
lthumb 10.8031 415.577
rfemur -11.8603 3.34091 25.5917
rtibia 17.8933
rfoot -1.49247 -2.79067
rtoes 4.24944
lfemur -8.69609 0.259974 -18.5304
ltibia 61.8366
lfoot 13.9318 -2.037
ltoes -2.13727
